<?xml version="1.0" encoding="UTF-8" standalone="no"?>
<svg
   version="1.0"
   width="408.000000pt"
   height="612.000000pt"
   viewBox="0 0 408.000000 612.000000"
   preserveAspectRatio="xMidYMid meet"
   id="svg7"
   sodipodi:docname="logo.svg"
   inkscape:version="1.4.2 (f4327f4, 2025-05-13)"
   xmlns:inkscape="http://www.inkscape.org/namespaces/inkscape"
   xmlns:sodipodi="http://sodipodi.sourceforge.net/DTD/sodipodi-0.dtd"
   xmlns:xlink="http://www.w3.org/1999/xlink"
   xmlns="http://www.w3.org/2000/svg"
   xmlns:svg="http://www.w3.org/2000/svg">
  <defs
     id="defs7">
    <linearGradient
       id="swatch27"
       inkscape:swatch="solid">
      <stop
         style="stop-color:#000000;stop-opacity:1;"
         offset="0"
         id="stop27" />
    </linearGradient>
    <linearGradient
       id="swatch26"
       inkscape:swatch="solid">
      <stop
         style="stop-color:#ffffff;stop-opacity:1;"
         offset="0"
         id="stop26" />
    </linearGradient>
    <linearGradient
       id="swatch25"
       inkscape:swatch="solid">
      <stop
         style="stop-color:#ffffff;stop-opacity:1;"
         offset="0"
         id="stop25" />
    </linearGradient>
    <linearGradient
       id="swatch24"
       inkscape:swatch="solid">
      <stop
         style="stop-color:#ffffff;stop-opacity:1;"
         offset="0"
         id="stop24" />
    </linearGradient>
    <linearGradient
       inkscape:collect="always"
       xlink:href="#swatch24"
       id="linearGradient24"
       x1="227.69788"
       y1="296.70066"
       x2="347.56322"
       y2="296.70066"
       gradientUnits="userSpaceOnUse" />
    <linearGradient
       inkscape:collect="always"
       xlink:href="#swatch25"
       id="linearGradient25"
       x1="63.563218"
       y1="296.6794"
       x2="182.52975"
       y2="296.6794"
       gradientUnits="userSpaceOnUse" />
    <linearGradient
       inkscape:collect="always"
       xlink:href="#swatch26"
       id="linearGradient26"
       x1="115.06322"
       y1="298.98136"
       x2="157.40629"
       y2="298.98136"
       gradientUnits="userSpaceOnUse" />
    <linearGradient
       inkscape:collect="always"
       xlink:href="#swatch26"
       id="linearGradient27"
       x1="253.52168"
       y1="298.82645"
       x2="296.42938"
       y2="298.82645"
       gradientUnits="userSpaceOnUse" />
  </defs>
  <sodipodi:namedview
     id="namedview7"
     pagecolor="#ffffff"
     bordercolor="#000000"
     borderopacity="0.25"
     inkscape:showpageshadow="2"
     inkscape:pageopacity="0.0"
     inkscape:pagecheckerboard="0"
     inkscape:deskcolor="#d1d1d1"
     inkscape:document-units="pt"
     inkscape:zoom="1.9191176"
     inkscape:cx="246.46743"
     inkscape:cy="343.12644"
     inkscape:window-width="1920"
     inkscape:window-height="1001"
     inkscape:window-x="-9"
     inkscape:window-y="-9"
     inkscape:window-maximized="1"
     inkscape:current-layer="svg7" />
  <g
     id="gafas"
     inkscape:label="gafas"
     style="fill:url(#linearGradient25);display:inline;fill-rule:evenodd">
    <path
       style="display:inline;fill:#0c325c;stroke:none;stroke-width:0.1;fill-rule:evenodd"
       d="m 80.563218,247.22644 c -11.7,1.1 -29.7,4.3 -36.8,6.4 -6.3,1.9 -8.4,4.6 -8.4,10.9 0,8.6 0.8,10.2 6.6,13 6.8,3.3 9,7.3 11.1,20.1 3.8,22.6 13.6,39.4 27.4,46.8 8.9,4.9 19.3,7.1 33.100002,7.1 20.1,-0.1 37.1,-4.9 51.5,-14.5 13.8,-9.3 22.5,-20.9 28.1,-37.9 4.2,-12.8 4.7,-13.6 8.9,-15 2.8,-0.9 4,-0.8 6.8,0.5 3.6,1.7 5.1,4.3 8.3,14.5 7.8,25.2 26.6,42.2 54.9,49.6 8.1,2.1 12.5,2.6 23,2.7 20.9,0.3 34.4,-3.8 44.8,-13.3 9.5,-8.6 14.8,-21.8 18.7,-45.8 1.3,-8.1 4.5,-12.9 9.9,-15.2 3.4,-1.4 5.1,-5.2 5.1,-11.7 0,-6.6 -2.1,-9.8 -7.7,-11.7 -14.4,-4.7 -49,-8.2 -73.3,-7.3 -19.4,0.8 -34,3.1 -57.4,9.2 -24.2,6.3 -28.2,6.8 -39.4,5 -5.1,-0.8 -17.1,-3.5 -26.8,-6 -9.6,-2.4 -22.6,-5.2 -28.7,-6 -13.5,-2 -46.600002,-2.7 -59.700002,-1.4 z"
       id="path3" />
  </g>
  <path
     d="m 65.963218,99.52644 c -15.6,3.6 -31.7,13.6 -40.9,25.6 -13.3,17.3 -18.2999996,33 -17.1999996,54.4 0.6,12.3 2.8999996,21.6 7.7999996,31.2 3,6.1 11.3,17.4 12.7,17.4 0.4,0 2.9,-3.5 5.6,-7.7 3.8,-6.1 4.6,-8.1 3.7,-9.3 -9.3,-13 -13.2,-32.5 -9.7,-48.3 2.7,-12 7.7,-21 16.5,-29.7 9.1,-9 17.6,-13.5 29.4,-15.7 19,-3.4 37.300002,1.9 51.000002,14.7 l 6.4,5.9 8.1,-2.6 c 4.5,-1.5 8.2,-3.1 8.2,-3.5 0,-0.4 -2.3,-3.5 -5.1,-6.8 -9,-10.9 -22.1,-19.6 -35.9,-24.1 -8.500002,-2.7 -31.400002,-3.6 -40.600002,-1.5 z"
     id="path1"
     style="display:inline;fill:#0c325c;stroke:none;stroke-width:0.1" />
  <g
     id="cuerpo"
     inkscape:label="cuerpo">
    <path
       d="m 160.86322,99.02644 c -2.4,0.4 -4.5,0.9 -4.7,1.2 -0.3,0.3 1.7,2.3 4.5,4.4 6.1,4.8 16,16.8 19.4,23.6 1.4,2.6 2.5,5 2.5,5.3 0,0.2 -3,0.7 -6.7,1.1 -32.3,3.3 -67.6,20.6 -96.800002,47.4 -20.4,18.8 -38.9,43.1 -51,67.1 -3.2,6.4 -12.5,28.4 -12.5,29.6 0,0.2 1.7,0.4 3.8,0.4 h 3.8 l -3.7,7.6 c -10.4999996,21.6 -14.4999996,42 -11.9999996,62.1 1.5,12.5 1.8,13 4.6999996,10.2 1.3,-1.2 2.6,-2.1 2.8,-1.8 0.2,0.2 0.6,8.2 0.8,17.6 0.2,9.5 0.7,17.6 1.1,17.9 0.4,0.4 1.6,-0.1 2.7,-1.1 2,-1.8 2,-1.8 2,6.3 0,10.3 4.9,36.8 20.4,110.4 2.5,11.9 4.6,21.9 4.6,22.2 0,0.3 -9.1,0.7 -20.2,0.8 l -20.2999996,0.3 0.4,3 c 0.8,7.1 6.4999996,14.8 14.2999996,19 l 5.3,3 H 204.06322 c 172.7,0 178.1,-0.1 182.9,-1.9 9.1,-3.5 17.5,-13.5 17.6,-20.9 v -2.7 h -20 c -11,0 -20,-0.1 -20,-0.3 0,-0.1 1.6,-7.6 3.6,-16.7 1.9,-9.1 3.9,-18.5 4.4,-21 0.5,-2.5 2.9,-14.2 5.4,-26 8,-38.7 11.8,-60.4 12,-68.2 0.1,-7.5 0.7,-9.1 2.2,-6.7 1.5,2.5 2.3,-2.3 3,-18.4 0.4,-9.2 1,-16.7 1.3,-16.7 0.3,0 1.2,0.9 1.9,2 0.7,1.1 1.6,2 2.1,2 3,0 4.1,-30 1.6,-42 -1.8,-8.4 -7.5,-24.1 -11.9,-32.5 -1.7,-3.3 -3.2,-6.3 -3.4,-6.8 -0.2,-0.4 1.2,-0.7 3.2,-0.7 h 3.6 l -1.6,-4.3 c -0.9,-2.3 -5.1,-11.4 -9.4,-20.2 -12.7,-26 -26.5,-45.1 -46.8,-64.6 -20.8,-20.1 -41.6,-33.4 -72.7,-46.5 -19.9,-8.4 -26.5,-12.2 -43.5,-24.8 -12.3,-9.2 -24.3,-15.7 -33.3,-18 -7,-1.8 -19.9,-2.7 -25.4,-1.7 z m 36,15 c 4.5,2.2 13.8,7.8 20.6,12.5 17.8,12.5 23.6,15.7 44.2,24.6 10.1,4.5 22.5,10.4 27.4,13.2 38.4,21.7 66.6,52.2 88.6,95.8 l 5.8,11.5 -2.9,0.3 c -4.3,0.5 -3.9,2.4 3,16.7 9.5,19.5 13.1,31.5 13.7,45.6 0.3,6.4 0.3,12.5 -0.1,13.4 -0.6,1.6 -0.9,1.5 -2.9,-0.7 -5.8,-6.3 -5.6,-6.9 -5.7,14.8 0,18.2 -0.5,23.3 -1.8,19.4 -0.2,-0.8 -2.3,-3.3 -4.6,-5.5 -7.9,-7.7 -5.3,-7.5 -88.5,-7.5 -45.2,0 -75,-0.4 -77.1,-1 -4.8,-1.3 -6.9,-3 -7.2,-5.9 -0.3,-2 0.4,-2.6 4.9,-4.1 6.8,-2.2 10.2,-4.5 11.4,-7.7 2.7,-7.2 -3.7,-11.6 -18.1,-12.1 -10.4,-0.4 -16.3,0.7 -20.4,3.9 -2.8,2.2 -3.5,6.4 -1.6,10 1.3,2.3 7.3,5.5 12.3,6.4 4.2,0.8 4.6,2.1 1.8,5.7 -3.8,4.7 -5.1,4.8 -83.2,4.8 -49.800002,0 -74.700002,0.4 -77.300002,1.1 -5.8,1.6 -11.4,5.5 -13.8,9.5 -1.5,2.6 -2.3,3.2 -2.9,2.2 -0.5,-0.7 -0.9,-9.8 -0.9,-20.2 v -19 l -3.5,3.4 c -1.9,1.8 -3.8,3 -4.2,2.6 -1.2,-1.2 -0.8,-18.3 0.7,-26.6 1.6,-9.3 4.8,-18.4 11.2,-31.9 2.7,-5.7 5.2,-11.9 5.5,-13.8 0.5,-3.1 0.4,-3.3 -2.6,-3.3 h -3.1 l 2.1,-5.3 c 5.2,-13.2 20.4,-38.8 30.7,-51.5 15.2,-18.9 30.6,-33.2 49.000002,-45.6 25.4,-17.2 49.4,-25.8 78.6,-28.2 l 7.8,-0.6 -0.6,-3.1 c -1,-4.9 -7.2,-16.9 -12.1,-23.5 -2.5,-3.3 -4.5,-6.2 -4.5,-6.5 0,-1.3 12.9,2.7 20.3,6.2 z m 169.5,265.6 c 10.2,3.1 15.1,10.1 15.2,21.6 0,7.1 -3.5,27.5 -10.1,59.2 -2.2,10.6 -4.9,23.6 -6,29 -2.9,14.9 -8.9,41.6 -9.9,44.2 -0.6,1.7 -0.5,2.7 0.6,3.5 0.7,0.7 1.4,2.7 1.4,4.6 0,6.9 11.7,6.4 -152.6,6.4 H 56.663218 l -2,-2.6 c -2.6,-3.3 -2.6,-4.5 -0.2,-7.5 1.8,-2.4 1.8,-2.6 -1.5,-15.5 -3,-12.2 -15.5,-73.1 -20.5,-99.9 -2.5,-13.8 -2.9,-25.4 -1.1,-30.6 1.8,-5.1 7.7,-10.7 13.1,-12.4 3.9,-1.1 29.6,-1.4 160.700002,-1.4 137,-0.1 156.7,0.1 161.2,1.4 z"
       id="path2"
       style="display:inline;fill:#0c325c;stroke:none;stroke-width:0.1" />
  </g>
  <g
     id="pupilaDerecha"
     inkscape:label="pupilaDerecha"
     style="fill:url(#linearGradient27)">
    <path
       style="fill:url(#linearGradient27);stroke:none;stroke-width:0.1"
       d="m 283.86322,278.52644 c 8.3,3.4 13.2,12.5 12.5,22.9 -0.7,11.8 -8.3,19.1 -19.8,19.1 -6.7,0 -12.2,-2.6 -17.3,-8.3 -4.8,-5.3 -7.2,-14.2 -4.8,-18 1.6,-2.5 4.1,-0.4 4.1,3.3 0,6.1 7.5,12.6 14.4,12.6 4.6,0 10.5,-3.1 12.6,-6.5 3.8,-6.1 2.1,-15.3 -3.5,-18.9 l -2.6,-1.7 0.6,3.5 c 0.6,2.9 0.3,3.9 -1.9,6 -3.4,3.5 -7,3.3 -10.7,-0.3 -3.9,-4 -3.8,-7.4 0.5,-11.7 2.9,-2.9 4.1,-3.4 8,-3.4 2.6,0 6.1,0.6 7.9,1.4 z"
       id="path14" />
  </g>
  <g
     id="pupilaIzquierda"
     inkscape:label="pupilaIzquierda"
     style="fill:url(#linearGradient26)">
    <path
       style="fill:url(#linearGradient26);stroke:none;stroke-width:0.1"
       d="m 143.16322,280.52644 c 4.3,4.3 4.4,7.7 0.5,11.7 -3.5,3.5 -6.8,3.7 -10.6,0.7 -2.3,-1.8 -2.6,-2.7 -2.2,-5.9 0.5,-3.8 0.5,-3.8 -1.8,-2.3 -2.9,1.9 -5.5,7.2 -5.5,11.4 0,10.2 10.5,16.7 20.3,12.6 4.5,-1.8 8.4,-6.7 9.2,-11.6 0.8,-4.6 3.1,-5.4 4.1,-1.3 1,3.8 -1.2,11.2 -4.5,15.3 -10,12.5 -26.2,13 -34.6,1.1 -2.7,-3.9 -3,-5 -3,-12.4 0,-8.9 1.2,-12.1 6.2,-17.1 3.8,-3.9 7.8,-5.5 13.7,-5.6 4.2,0 5.2,0.4 8.2,3.4 z"
       id="path13" />
  </g>
  <g
     id="ojoDerecho"
     inkscape:label="ojoDerecho"
     style="fill:url(#linearGradient24)">
    <path
       style="fill:url(#linearGradient24);stroke:none;stroke-width:0.1"
       d="m 317.06322,257.12644 c 11.5,1.7 19.3,4.7 23.9,9.4 5.1,5.1 6.6,9.8 6.6,20.9 0,16.5 -4.8,32 -12.4,40.5 -4.1,4.5 -12.6,9.2 -16.5,9.2 -2.6,0 -2.5,-0.1 1.1,-3.4 5,-4.6 6.4,-9.9 4.9,-19.3 -2.8,-18.4 -16.2,-36.7 -33.6,-46 -6.7,-3.7 -7.4,-3.8 -17,-3.8 -11.9,0 -16.2,1.8 -23.7,9.7 -5.7,5.9 -8.1,12.5 -8,21.7 0.1,10.2 3.6,18.1 11.6,26.9 2.1,2.3 3.6,4.5 3.3,4.8 -2,2.1 -15.3,-8.8 -21.1,-17.3 -6.3,-9.3 -10.2,-26.1 -7.7,-33.5 3.1,-9.3 18.5,-16.8 40.7,-19.7 9.6,-1.2 39.5,-1.3 47.9,-0.1 z"
       id="path12"
       inkscape:label="path12" />
  </g>
  <g
     id="ojoIzquierdo"
     inkscape:label="ojoIzquierdo"
     style="fill:url(#linearGradient25)">
    <path
       style="fill:url(#linearGradient25);stroke:none;stroke-width:0.1"
       d="m 139.86322,257.62644 c 24.1,3.2 38.1,9.5 41.6,18.8 2.5,6.6 0.5,19 -4.9,29.6 -3.5,7.1 -12.2,16.7 -17.9,19.9 -5.2,3 -5.3,1.3 -0.1,-4.6 2.2,-2.5 5.5,-7.5 7.3,-11.1 2.8,-5.7 3.2,-7.5 3.2,-14.6 0,-6.2 -0.5,-9.1 -2.3,-13 -2.9,-6.3 -8.3,-11.9 -14.7,-15.3 -4.4,-2.4 -6.1,-2.7 -14.6,-2.7 -8.9,0 -10,0.2 -16.2,3.4 -27.300002,13.9 -44.400002,54 -28.400002,66.6 3.8,2.9 2.2,3.2 -4.6,0.9 -14.2,-4.8 -24.7,-25.1 -24.7,-47.7 0,-11.4 1.4,-16.1 6.5,-21.3 4.7,-4.9 12.1,-7.9 22.7,-9.2 11.400002,-1.5 35.200002,-1.3 47.100002,0.3 z"
       id="path11" />
  </g>
  <path
     d="m 182.56322,443.22644 v 20.2 l 2.5,-2.3 c 2.4,-2.3 2.5,-2.7 2.5,-17.2 v -14.8 h 6 6 v 5.2 c 0,4.7 -0.3,5.6 -3.1,7.8 -2.3,1.9 -3,3.3 -2.7,5.2 l 0.3,2.7 5.8,-3.5 5.7,-3.6 v -9.8 -9.8 l -11.5,-0.1 -11.5,-0.2 z"
     id="path4"
     style="fill:#0c325c;stroke:none;stroke-width:0.1" />
  <path
     d="m 209.56322,438.62644 v 3.5 h 8 c 4.4,0 8,-0.4 8,-0.9 0,-0.4 -0.9,-2 -2.1,-3.5 -1.8,-2.3 -2.8,-2.6 -8,-2.6 h -5.9 z"
     id="path5"
     style="fill:#0c325c;stroke:none;stroke-width:0.1" />
  <path
     d="m 201.36322,451.32644 c -1.9,1.4 -2,1.8 -0.9,3.2 1.1,1.3 3.4,1.6 11.1,1.6 h 9.8 l 0.4,3.7 c 0.8,6.1 0.5,6.3 -9.3,6.3 -4.9,0 -8.9,0.3 -8.9,0.8 0,0.4 0.7,1.8 1.6,3 1.4,2 2.3,2.2 10.8,2.2 5.8,0 9.6,-0.4 10.4,-1.2 1.7,-1.7 1.6,-18.2 0,-19.6 -0.7,-0.6 -6.1,-1.2 -12.1,-1.4 -8.8,-0.2 -11.1,0 -12.9,1.4 z"
     id="path6"
     style="fill:#0c325c;stroke:none;stroke-width:0.1" />
  <path
     d="m 303.56322,99.62644 c -11.7,2.6 -26.9,11.3 -35.8,20.3 -3.9,3.9 -10.2,11.5 -10.2,12.2 0,0.4 4.1,2.2 9.1,3.9 l 9.1,3.2 6.7,-6.3 c 8,-7.6 13.4,-10.9 22.1,-13.6 34.2,-10.5 68.9,9.1 77.6,43.8 2.6,10.1 1.5,25.2 -2.4,35.3 -1.6,4.3 -4.2,9.3 -5.6,11.2 l -2.6,3.4 4.4,7 c 2.5,3.8 4.9,7.2 5.5,7.5 1.5,1 9.8,-10.6 13.7,-19.1 4.5,-9.4 6.4,-19.1 6.4,-31.6 -0.1,-22.3 -6.8,-39 -22.2,-55.2 -9,-9.5 -18.3,-15.3 -31.2,-19.7 -8.2,-2.8 -10.6,-3.1 -23.6,-3.4 -10.3,-0.3 -16.4,0.1 -21,1.1 z"
     id="path7"
     style="fill:#0c325c;stroke:none;stroke-width:0.1" />
</svg>
